<?xml version="1.0" encoding="utf-8"?>
<!-- Generator: Adobe Illustrator 27.5.0, SVG Export Plug-In . SVG Version: 6.00 Build 0)  -->
<svg version="1.1" id="Layer_1" xmlns="http://www.w3.org/2000/svg" xmlns:xlink="http://www.w3.org/1999/xlink" x="0px" y="0px"
	 viewBox="0 0 2000 796" style="enable-background:new 0 0 2000 796;" xml:space="preserve">
<style type="text/css">
	.st0{fill-rule:evenodd;clip-rule:evenodd;fill:#1C4980;}
</style>
<g>
	<path class="st0" d="M1008.9,342.7c-0.6-28.8-20.4-43-59.9-43c-28.8,0-48.1,11.9-48.1,29.4c0,13,5.7,17.5,28.8,24.9l105.2,30
		c41.8,12.4,62.8,39,62.8,80.3c0,31.1-14.1,61.1-37.9,79.7c-23.8,18.7-57.7,28.3-101.8,28.3c-97.3,0-148.7-36.2-151-106.3h81.4
		c3.4,17,7.4,23.8,15.8,30c10.7,7.9,27.1,11.3,49.2,11.3c38.5,0,61.6-11.9,61.6-31.1c0-13-7.4-19.2-27.7-26l-99-30.5
		c-31.1-10.2-40.7-15.3-52-26.6c-11.3-12.4-17.5-30.5-17.5-52c0-65.6,50.3-106.3,131.8-106.3c86,0,138,40.7,139.1,108L1008.9,342.7z
		"/>
	<path class="st0" d="M1297.3,300.9h-46.4v173.6c0,28.3,5.1,35.1,27.1,35.1c6.8,0,10.7-0.6,19.2-1.7v57.7
		c-15.3,4.5-28.8,6.2-48.1,6.2c-54.3,0-81.4-24.9-81.4-75.2V300.3H1127v-54.9h40.7V160h83.1v85.4h46.4v55.5H1297.3z"/>
	<path class="st0" d="M1647.4,405.5c0,102.9-60.5,166.8-158.4,166.8c-98.4,0-158.3-63.9-158.3-169.1c0-104.6,59.9-169.1,157.8-169.1
		C1589.1,234.1,1647.4,297.5,1647.4,405.5L1647.4,405.5z M1413.8,403.2c0,61.6,30,102.4,75.2,102.4c44.7,0,75.2-41.3,75.2-101.2
		c0-62.8-29.4-103.5-75.2-103.5C1444.3,300.9,1413.8,342.1,1413.8,403.2z"/>
	<path class="st0" d="M1777.2,286.7c20.4-35.6,48.6-52.6,88.8-52.6c38.5,0,78,20.4,99.5,50.3c21.5,29.4,34.5,74.6,34.5,119.3
		c0,96.7-57.1,169.1-134,169.1c-40.2,0-69-16.4-88.8-52v166.8h-83.1V239.8h83.1V286.7L1777.2,286.7z M1777.2,403.8
		c0,59.4,27.7,99.5,70.1,99.5c41.3,0,70.1-40.2,70.1-98.4c0-61.6-27.7-101.8-70.1-101.8C1804.9,303.7,1777.2,343.8,1777.2,403.8z"/>
	<path class="st0" d="M397.6,0.4C178.6,0.4,0,179,0,398s178.6,397.6,397.6,397.6S795.2,617,795.2,398C795.1,179,616.5,0.4,397.6,0.4
		z M357.7,559h-82.6v-37.3c-23.8,36.2-52.6,51.5-96.1,51.5c-69,0-107.5-39.6-107.5-110.3V240.6h83.1v204.7
		c0,38.5,17.5,57.1,53.2,57.1c40.7,0,66.7-24.9,66.7-62.8V240h83.1v319H357.7z M640.5,559V362.2c0-37.9-17.5-57.1-53.2-57.1
		c-40.7,0-66.7,24.9-66.7,62.8V559h-83.1V240h82.6v0.6v45.8c23.8-36.2,52.6-51.5,96.1-51.5c69,0,107.5,39.6,107.5,110.3V559H640.5z"
		/>
</g>
</svg>
